<svg height="512" viewBox="0 0 512 512" width="512" xmlns="http://www.w3.org/2000/svg" xmlns:xlink="http://www.w3.org/1999/xlink"><linearGradient id="a" gradientUnits="userSpaceOnUse" x1="-3.944" x2="533.195" y1="483.944" y2="-53.195" data-name="New Gradient Swatch 1"><stop offset="0" stop-color="#003f8a"/><stop offset=".518" stop-color="#00d7df"/><stop offset="1" stop-color="#006df0"/></linearGradient><linearGradient id="b" x1="-83.944" x2="453.195" xlink:href="#a" y1="403.944" y2="-133.195"/><linearGradient id="c" x1="-59.944" x2="477.195" xlink:href="#a" y1="427.944" y2="-109.195"/><linearGradient id="d" x1="-47.944" x2="489.195" xlink:href="#a" y1="439.944" y2="-97.195"/><linearGradient id="f" x1="-25.944" x2="511.195" xlink:href="#a" y1="461.944" y2="-75.195"/><linearGradient id="g" x1="20.056" x2="557.195" xlink:href="#a" y1="507.944" y2="-29.195"/><linearGradient id="h" x1="44.056" x2="581.195" xlink:href="#a" y1="531.944" y2="-5.195"/><linearGradient id="i" x1="56.056" x2="593.195" xlink:href="#a" y1="543.944" y2="6.805"/><linearGradient id="k" x1="78.056" x2="615.195" xlink:href="#a" y1="565.944" y2="28.805"/><linearGradient id="l" x1="1.441" x2="538.58" xlink:href="#a" y1="489.329" y2="-47.81"/><linearGradient id="m" x1="23.709" x2="560.848" xlink:href="#a" y1="511.597" y2="-25.542"/><g><path d="m476 40h-440a28.031 28.031 0 0 0 -28 28v312a28.031 28.031 0 0 0 28 28h160.9l-10.67 32h-18.23a8 8 0 0 0 -8 8v16h-56a8 8 0 0 0 0 16h304a8 8 0 0 0 0-16h-56v-16a8 8 0 0 0 -8-8h-18.23l-10.67-32h160.9a28.031 28.031 0 0 0 28-28v-312a28.031 28.031 0 0 0 -28-28zm-140 416v8h-160v-8zm-132.9-16 10.67-32h84.46l10.67 32zm284.9-60a12.01 12.01 0 0 1 -12 12h-440a12.01 12.01 0 0 1 -12-12v-12h464zm0-28h-464v-284a12.01 12.01 0 0 1 12-12h440a12.01 12.01 0 0 1 12 12z" fill="url(#a)"/><path d="m56 256h80a8 8 0 0 0 8-8v-48a8 8 0 0 0 -8-8h-80a8 8 0 0 0 -8 8v48a8 8 0 0 0 8 8zm8-48h64v32h-64z" fill="url(#b)"/><path d="m56 280h80a8 8 0 0 0 0-16h-80a8 8 0 0 0 0 16z" fill="url(#c)"/><path d="m56 304h80a8 8 0 0 0 0-16h-80a8 8 0 0 0 0 16z" fill="url(#d)"/><path d="m56 328h32a8 8 0 0 0 0-16h-32a8 8 0 0 0 0 16z" fill="url(#d)"/><path d="m120 312h-8a8 8 0 0 0 0 16h8a8 8 0 0 0 0-16z" fill="url(#f)"/><path d="m376 144h80a8 8 0 0 0 8-8v-48a8 8 0 0 0 -8-8h-80a8 8 0 0 0 -8 8v48a8 8 0 0 0 8 8zm8-48h64v32h-64z" fill="url(#g)"/><path d="m376 168h80a8 8 0 0 0 0-16h-80a8 8 0 0 0 0 16z" fill="url(#h)"/><path d="m376 192h80a8 8 0 0 0 0-16h-80a8 8 0 0 0 0 16z" fill="url(#i)"/><path d="m376 216h32a8 8 0 0 0 0-16h-32a8 8 0 0 0 0 16z" fill="url(#i)"/><path d="m440 200h-8a8 8 0 0 0 0 16h8a8 8 0 0 0 0-16z" fill="url(#k)"/><path d="m344 216h-16v-72a72 72 0 0 0 -144 0v72h-16a8 8 0 0 0 -8 8v104a8 8 0 0 0 8 8h176a8 8 0 0 0 8-8v-104a8 8 0 0 0 -8-8zm-144-72a56 56 0 0 1 112 0v72h-8v-72a48 48 0 0 0 -96 0v72h-8zm88 0v72h-64v-72a32 32 0 0 1 64 0zm48 176h-160v-88h160z" fill="url(#l)"/><path d="m264 265.376v-17.376a8 8 0 0 0 -16 0v17.376a24 24 0 1 0 16 0zm-8 30.624a8 8 0 1 1 8-8 8.009 8.009 0 0 1 -8 8z" fill="url(#m)"/></g></svg>